<?xml version="1.0" standalone="no"?>
<!DOCTYPE svg PUBLIC "-//W3C//DTD SVG 20010904//EN"
 "http://www.w3.org/TR/2001/REC-SVG-20010904/DTD/svg10.dtd">
<svg version="1.0" xmlns="http://www.w3.org/2000/svg"
 width="300.000000pt" height="300.000000pt" viewBox="0 0 300.000000 300.000000"
 preserveAspectRatio="xMidYMid meet">
<metadata>
Created by potrace 1.11, written by Peter Selinger 2001-2013
</metadata>
<g transform="translate(0.000000,300.000000) scale(0.100000,-0.100000)"
fill="#000000" stroke="none">
<path d="M0 1500 l0 -1500 1500 0 1500 0 0 1500 0 1500 -1500 0 -1500 0 0
-1500z m1093 1036 c42 -17 83 -66 97 -114 6 -22 10 -164 10 -345 l0 -309 74
70 c138 128 293 180 464 155 199 -29 297 -110 364 -303 40 -117 48 -222 48
-674 0 -415 -1 -431 -21 -473 -11 -23 -34 -52 -50 -64 -58 -41 -156 -37 -209
8 -66 55 -64 41 -70 548 l-5 460 -30 60 c-23 46 -41 66 -79 90 -47 28 -55 30
-155 30 -96 0 -111 -3 -163 -28 -69 -34 -121 -91 -148 -164 -19 -51 -20 -78
-20 -461 0 -253 -4 -421 -11 -445 -13 -50 -61 -103 -106 -118 -48 -16 -124 -7
-161 19 -17 12 -40 42 -51 66 -21 43 -21 46 -19 968 l3 924 26 40 c15 23 42
48 60 57 41 20 108 22 152 3z"/>
</g>
</svg>
